# xmcd CD database file
# Copyright (C) 1993-1998 Ti Kan
# 
# Track frame offsets:
#     183
#     10363
#     22623
#     35708
#     47283
#     58745
#     76093
#     89690
#     104933
#     116403
#     128003
#     138173
#     150263
#     162698
#     176455
#     194500
#     210783
#     221145
#     232215
#     243965
# 
# Disc length: 3428 seconds
# 
# Revision: 1
# Processed by: cddbd v1.4b41PL1 Copyright (c) Steve Scherf et al.
# Submitted via: DiscPlay 4.0.3
# 
DISCID=0b0d6214
DTITLE=John Lee Hooker - The Collection
DYEAR=1900
DGENRE=
TTITLE0=Dimples
TTITLE1=I'm in the Mood
TTITLE2=Hobo Blues
TTITLE3=Boogie Chillun
TTITLE4=Boom Boom
TTITLE5=Blues Before Sunrise
TTITLE6=Time is Marching
TTITLE7=Tupelo
TTITLE8=Little Wheel
TTITLE9=Shake, Holler and Run
TTITLE10=Want Ad Blues
TTITLE11=Crawling King Snake
TTITLE12=Whiskey and Wimmin
TTITLE13=Tease Me Baby
TTITLE14=Wednesday Evening Blues
TTITLE15=My First Wife Left Me
TTITLE16=Maudie
TTITLE17=No Shoes
TTITLE18=I Love You Honey
TTITLE19=Rock House Boogie
EXTD=
EXTT0=
EXTT1=
EXTT2=
EXTT3=
EXTT4=
EXTT5=
EXTT6=
EXTT7=
EXTT8=
EXTT9=
EXTT10=
EXTT11=
EXTT12=
EXTT13=
EXTT14=
EXTT15=
EXTT16=
EXTT17=
EXTT18=
EXTT19=
PLAYORDER=
